<svg width="24" height="24" viewBox="0 0 24 24" fill="none" xmlns="http://www.w3.org/2000/svg">
<g id="IconWrench">
<path id="Vector" d="M13.2491 7.73917C12.8237 6.21775 13.2098 4.51783 14.4035 3.32088C15.5937 2.13644 17.2761 1.74774 18.7867 2.15813L16.2252 4.72052L16.5 7.5L19.409 7.89932L21.9722 5.33943C22.3801 6.85168 21.9914 8.53242 20.8028 9.72186C19.5599 10.9672 17.7658 11.3334 16.1968 10.8221L16.1818 10.8362L5.64445 21.3736C5.22739 21.7898 4.68105 22 4.1347 22C3.58752 22 3.04285 21.7898 2.62496 21.3736C1.79168 20.542 1.79168 19.1907 2.62496 18.3541L13.2491 7.73917Z" fill="white" fill-opacity="0.9"/>
</g>
</svg>
