<svg width="24" height="24" viewBox="0 0 24 24" fill="none" xmlns="http://www.w3.org/2000/svg">
<g id="IconTeam">
<g id="Vector">
<path d="M13 7.5C13 9.73168 11.8012 12 9.5 12C7.19881 12 6 9.73168 6 7.5C6 5.26832 6.02778 3 9.5 3C12.9722 3 13 5.26832 13 7.5Z" fill="white" fill-opacity="0.9"/>
<path d="M2 21C2 15.9027 4.08334 14 8.66667 14H10.3333C14.0833 14 17 15.2857 17 21L2 21Z" fill="white" fill-opacity="0.9"/>
<path d="M13.7558 11.7274C13.7188 11.7807 13.6809 11.8334 13.6421 11.8855C13.9085 11.96 14.1945 12 14.4999 12C16.8011 12 17.9999 9.73168 17.9999 7.5C17.9999 5.26832 17.9721 3 14.4999 3C14.3394 3 14.1863 3.00485 14.0402 3.01431C14.1455 3.16707 14.2405 3.32557 14.3255 3.48871C15.0045 4.79142 15.0018 6.3695 15.0001 7.35958L14.9999 7.5C14.9999 8.93943 14.6194 10.4835 13.7558 11.7274Z" fill="white" fill-opacity="0.9"/>
<path d="M21.9999 21H18.9999C18.9999 17.972 18.2581 15.6237 16.6166 14.0583C19.7281 14.3631 21.9999 15.9568 21.9999 21Z" fill="white" fill-opacity="0.9"/>
</g>
</g>
</svg>
